<?xml version="1.0" encoding="utf-8"?>
<svg viewBox="32.203 43.2116 215.797 257.2884" xmlns="http://www.w3.org/2000/svg">
  <g transform="matrix(0.10000000149011612, 0, 0, -0.10000000149011612, 0, 314)" fill="#FFFFFF" stroke="none">
    <path d="M1100 2686 c-217 -91 -313 -214 -335 -428 -7 -73 1 -85 29 -43 9 14&#10;50 50 91 80 94 70 115 98 175 236 29 64 64 127 82 146 38 39 32 40 -42 9z"/>
    <path d="M 1300 2586 C 1153 2553 1057 2467 1016 2333 C 1007 2306 1019 2304 1058 2324 C 1137 2365 1225 2384 1330 2383 C 1389 2383 1454 2377 1475 2370 C 1497 2363 1529 2353 1545 2348 C 1599 2330 1647 2310 1782 2246 C 1836 2221 2039 2155 2130 2155 C 2219 2155 2290 2171 2290 2190 C 2290 2194 2260 2200 2223 2203 C 2097 2213 2010 2253 1905 2349 C 1801 2444 1757 2478 1688 2515 C 1608 2557 1583 2566 1485 2586 C 1403 2602 1375 2602 1300 2586 Z"/>
    <path d="M1238 2259 c-86 -64 30 -170 258 -234 49 -14 98 -30 109 -34 11 -5&#10;41 -18 67 -30 26 -12 50 -21 53 -21 15 0 125 -83 170 -127 129 -127 202 -259&#10;244 -438 43 -179 66 -229 143 -302 54 -52 198 -120 198 -94 0 5 -4 13 -10 16&#10;-19 12 -81 128 -102 193 -20 60 -22 86 -21 237 1 94 -3 195 -9 225 -13 66 -48&#10;150 -71 169 -27 22 -20 37 25 52 74 24 186 152 123 140 -63 -11 -216 -12 -265&#10;-1 -30 7 -138 53 -240 102 -213 104 -209 102 -275 124 -101 33 -162 43 -265&#10;43 -90 0 -109 -3 -132 -20z"/>
    <path d="M805 2101 c-91 -56 -217 -101 -284 -101 -61 0 -150 -28 -179 -57 -19&#10;-19 -23 -31 -18 -56 3 -17 14 -39 24 -50 14 -16 17 -39 17 -137 0 -65 3 -122&#10;7 -126 5 -4 17 1 29 12 17 15 35 19 95 17 40 0 88 -6 106 -12 43 -13 152 -19&#10;156 -7 2 5 -30 19 -70 33 -143 47 -216 90 -243 143 -63 122 77 225 365 270 66&#10;11 123 24 198 46 33 10 27 21 -15 28 -21 3 -51 13 -67 21 -39 21 -53 18 -121&#10;-24z"/>
    <path d="M1124 1906 c-3 -8 -1 -23 5 -34 45 -84 54 -220 22 -310 -37 -101 -90&#10;-175 -270 -378 -257 -292 -327 -468 -277 -708 23 -106 40 -112 49 -16 17 168&#10;123 331 287 441 36 24 134 78 217 121 168 85 221 118 277 174 70 70 103 172&#10;86 266 -14 76 -32 142 -41 153 -13 14 -11 25 5 25 14 0 85 -72 104 -105 18&#10;-33 25 -8 12 42 -52 204 -128 293 -280 329 -77 18 -189 18 -196 0z"/>
    <path d="M1666 1858 c-28 -40 -21 -179 14 -289 17 -52 35 -103 39 -114 26 -60&#10;50 -159 51 -210 0 -58 -22 -153 -70 -295 -39 -116 -42 -130 -36 -202 5 -72 34&#10;-158 54 -158 4 0 24 30 44 68 20 37 78 121 127 187 156 207 196 316 171 467&#10;-37 230 -150 410 -337 539 l-42 29 -15 -22z"/>
    <path d="M937 1691 c-3 -26 -15 -66 -27 -87 -29 -55 -124 -139 -195 -173 -133&#10;-63 -224 -67 -301 -13 l-44 32 0 -101 c0 -91 3 -107 29 -163 47 -98 91 -132&#10;91 -70 0 38 44 117 86 153 70 62 167 87 227 60 13 -6 32 -25 42 -41 l18 -31&#10;69 74 c97 104 121 148 121 218 0 57 -18 101 -67 163 -31 39 -42 34 -49 -21z"/>
    <path d="M1580 1323 c-36 -154 -104 -228 -295 -323 -240 -119 -324 -182 -397&#10;-295 -85 -130 -102 -180 -102 -301 0 -88 2 -95 45 -180 24 -49 48 -89 53 -89&#10;6 0 20 29 33 65 86 242 210 398 440 551 60 40 129 89 155 111 87 72 138 179&#10;138 291 0 55 -33 204 -49 220 -4 4 -14 -18 -21 -50z"/>
  </g>
</svg>